<svg xmlns="http://www.w3.org/2000/svg" viewBox="0 0 1066.79 951.88"><defs><style>.cls-1{isolation:isolate;}.cls-2,.cls-7{fill:#b7c0d3;mix-blend-mode:multiply;}.cls-2{opacity:0.3;}.cls-3{fill:#d4382f;}.cls-4,.cls-8,.cls-9{fill:#fff;}.cls-5{fill:#0b122f;}.cls-6{fill:#ced4e1;}.cls-7{opacity:0.7;}.cls-8{mix-blend-mode:overlay;}.cls-9{stroke:#000;stroke-miterlimit:10;stroke-width:3px;}</style></defs><title>logo_1</title><g class="cls-1"><g id="Layer_2" data-name="Layer 2"><g id="background"><path class="cls-2" d="M798.83,536.06c-121.51,0-224.11,16.05-256.94,38.05-54.14-11.33-130.72-18.4-215.62-18.4-164.07,0-297.08,26.4-297.08,58.95s133,59,297.08,59c140.89,0,258.87-19.46,289.4-45.58C663.58,637,728,642.41,798.83,642.41c148,0,268-23.81,268-53.18S946.82,536.06,798.83,536.06Z"/><path class="cls-3" d="M986.45,178.33l.09.12.09.14c86.69,121.44,61.45,288.92-55.19,379.7l-161-225.55-161-225.55C733.17,26.36,899.77,56.9,986.45,178.33Z"/><path class="cls-4" d="M531.37,503.57a.55.55,0,0,1-.09-.14l-.1-.12c-86.68-121.44-61.44-288.93,55.2-379.71l161,225.56,161,225.56C784.65,655.53,618.06,625,531.37,503.57Z"/><path class="cls-5" d="M609.41,107.19l161,225.55,161,225.55c-3.06,2.4-6.18,4.75-9.37,7q-6.8,4.85-13.78,9.22L747.41,349.17,586.53,123.8c4.29-3.44,8.67-6.8,13.19-10C602.91,111.48,606.15,109.31,609.41,107.19Z"/><path class="cls-5" d="M695.91,252.69A108.59,108.59,0,1,0,847.38,278,108.6,108.6,0,0,0,695.91,252.69Z"/><path class="cls-4" d="M716.19,281.09A73.7,73.7,0,1,0,819,298.27,73.72,73.72,0,0,0,716.19,281.09Z"/><path class="cls-6" d="M761.21,267.43a71.38,71.38,0,1,0,35.23,137.12,73.69,73.69,0,1,1-35.23-137.12Z"/><path class="cls-7" d="M599.72,113.77c3.19-2.29,6.43-4.46,9.69-6.58A276.5,276.5,0,0,1,827.35,70.33,275.66,275.66,0,0,0,703,114c-3.25,2.14-6.49,4.3-9.68,6.59-4.53,3.23-8.92,6.6-13.19,10l-.16-.21C563.36,221.24,538.11,388.72,624.8,510.17a.53.53,0,0,0,.1.12,1,1,0,0,0,.08.14,276.15,276.15,0,0,0,159.1,108c-95.41,9.27-193-31.24-252.71-114.86a.55.55,0,0,1-.09-.14l-.1-.12c-86.68-121.44-61.44-288.93,55.2-379.71l.15.2C590.82,120.36,595.2,117,599.72,113.77Z"/><path class="cls-8" d="M975.21,186.35c0,.05.07.09.09.13l.09.12c82.41,115.44,58.42,274.66-52.47,361-2.92,2.27-5.87,4.5-8.91,6.66-4.3,3.07-8.68,6-13.1,8.77l.13.18c-6.85,4.47-13.84,8.55-20.95,12.31a175.86,175.86,0,0,1-17-32.06,55,55,0,0,0-5.92-11c3.32-2,6.61-4,9.87-6.13l-.12-.19q6.63-4.16,13.09-8.77c3-2.16,6-4.37,8.91-6.65,110.88-86.3,134.88-245.52,52.47-361l-.08-.11-.1-.14c-1.54-2.15-3.15-4.22-4.75-6.32A264,264,0,0,1,975.21,186.35Z"/><path class="cls-3" d="M92.67,100.24l.13-.14a1.59,1.59,0,0,0,.13-.13C216.08-27.1,416.85-33.43,547.67,83.25l-228.73,236-228.72,236C-30.5,428.15-30.46,227.29,92.67,100.24Z"/><path class="cls-4" d="M569.29,561.63a.61.61,0,0,1-.15.13l-.12.14C445.87,689,245.11,695.29,114.28,578.62L343,342.61l228.74-236C692.45,233.71,692.41,434.57,569.29,561.63Z"/><path class="cls-5" d="M90.22,555.27l228.72-236,228.73-236q5.16,4.57,10.18,9.43,7.11,6.88,13.7,14.1L343,342.59,114.49,578.4c-4.92-4.26-9.79-8.65-14.53-13.25C96.62,561.93,93.39,558.6,90.22,555.27Z"/><path class="cls-5" d="M241.48,423.27a128.78,128.78,0,1,0-2.83-182.09A128.79,128.79,0,0,0,241.48,423.27Z"/><path class="cls-4" d="M270.28,393.55A87.41,87.41,0,1,0,268.35,270,87.42,87.42,0,0,0,270.28,393.55Z"/><path class="cls-6" d="M244.72,344a84.66,84.66,0,1,0,152.44-70.38A87.39,87.39,0,1,1,244.72,344Z"/><path class="cls-7" d="M100,565.15c-3.34-3.22-6.57-6.55-9.74-9.88A328,328,0,0,1,.68,308.9,326.77,326.77,0,0,0,78.21,444.6c3.19,3.33,6.41,6.65,9.75,9.88,4.74,4.61,9.61,9,14.54,13.25l-.21.23C233.1,584.62,433.87,578.29,557,451.23a1.3,1.3,0,0,1,.12-.14.55.55,0,0,0,.14-.13,327.41,327.41,0,0,0,92-208.66c31.2,109.31,4.8,231.82-80,319.33a.61.61,0,0,1-.15.13l-.12.14C445.87,689,245.11,695.29,114.28,578.62l.21-.22C109.57,574.14,104.7,569.75,100,565.15Z"/><path class="cls-8" d="M104.44,111.64l.12-.13a1.58,1.58,0,0,1,.13-.13C221.75-9.42,412.61-15.44,537,95.47c3.28,2.92,6.5,5.89,9.69,9,4.49,4.36,8.83,8.85,13,13.41l.19-.18c6.68,7,12.93,14.32,18.83,21.79a207.48,207.48,0,0,1-33.77,26.7,65.75,65.75,0,0,0-11.6,9.25q-4.5-5.17-9.26-10.2l-.19.18q-6.27-6.84-13-13.4c-3.17-3.08-6.38-6.05-9.67-9C376.81,32.11,186,38.12,68.88,158.92l-.12.13-.13.13c-2.19,2.26-4.25,4.58-6.36,6.9A313.42,313.42,0,0,1,104.44,111.64Z"/><path class="cls-9" d="M178.3,925.06q0,9.39-6.13,15.32a21.39,21.39,0,0,1-15.51,5.94H79.49q-9.39,0-15.32-5.94t-5.94-15.32V667.9q0-9.37,5.94-15.32t15.32-5.93h77.17a21.43,21.43,0,0,1,15.51,5.93q6.12,5.94,6.13,15.32v69.7H151.49V670.2H84.85V922.77h66.64V849.05H178.3Z"/><path class="cls-9" d="M327.08,946.32H302v-5.17q-15.12,2.11-30.25,4a260.44,260.44,0,0,1-30.07,2.3q-20.86,0-20.87-20.68v-68q0-21.43,21.64-21.44h59.94V781.26H247.61v31.79h-24.7V781.64q0-21.63,21.45-21.63h61.27q21.45,0,21.45,21.63Zm-24.7-23.17V857.28H245.5v67Z"/><path class="cls-9" d="M435.84,946.32H399.65q-21.45,0-21.45-21.64V782.41H355.8V760h22.4V702h25.09v58h32.55v22.4H403.29V923.92h32.55Z"/><path class="cls-9" d="M575.43,946.32H550V782.79l-56.11,1.53v162H468.39V646.65h25.47V765.18l30.25-3.83q19.15-2.49,30.07-2.49,21.26,0,21.25,20.87Z"/><path class="cls-9" d="M875.94,950.38H848.87l-10.79-68.27h-61l-10.8,68.27H740v-.78l54.73-307H821.6ZM834.54,858,807.67,691.63,780.6,858Z"/><path class="cls-9" d="M937,950.38h-25.7v-307H937Z"/><path class="cls-9" d="M1008.55,950.38h-25.7v-307h25.7Z"/></g></g></g></svg>